# xmcd CD database file
#
# Track frame offsets:
#	150
#	13311
#	24727
#	37903
#	50804
#	63076
#	72469
#	87012
#	99187
#	119666
#	132097
#	146634
#	158105
#	172241
#	185644
#	198252
#	212400
#	224578
#
# Disc length: 3174 seconds
#
# Revision: 0
# Processed by: cddbd v1.5.2PL0 Copyright (c) Steve Scherf et al.
# Submitted via: CDex 1.51
#
DISCID=0d0c6412
DTITLE=diverse artiesten - All that jazz
DYEAR=2005
DGENRE=Jazz
TTITLE0=bud powell trio - somebody loves me
TTITLE1=mel tormé - you're a heavenly thing
TTITLE2=frank sinatra - i get a kick out of you
TTITLE3=doris day - lullaby of broadway
TTITLE4=bob crosby - song of the island
TTITLE5=glenn miller - serenade in blue
TTITLE6=tommy dorsey - song of india
TTITLE7=camille howard - has your love grown cold
TTITLE8=duke ellington and orchestra - rockin' in rhythm
TTITLE9=mel tormé - sonny boy
TTITLE10=woody herman and orchestra - early autumn
TTITLE11=ray anthony - swingin' on campus
TTITLE12=sammy davis jr. - dedicated to you
TTITLE13=jo stafford and the pied pipers - on the sunny side of the street
TTITLE14=frankie laine - that's my desire
TTITLE15=benny goodman - big john's special
TTITLE16=billy may - top hat, white tie and tails
TTITLE17=glen gray - opus one
EXTD=YEAR: 2005
EXTT0=
EXTT1=
EXTT2=
EXTT3=
EXTT4=
EXTT5=
EXTT6=
EXTT7=
EXTT8=
EXTT9=
EXTT10=
EXTT11=
EXTT12=
EXTT13=
EXTT14=
EXTT15=
EXTT16=
EXTT17=
PLAYORDER=
